<?xml version="1.0" encoding="utf-8"?>
<!-- Generator: Adobe Illustrator 17.0.0, SVG Export Plug-In . SVG Version: 6.00 Build 0)  -->
<!DOCTYPE svg PUBLIC "-//W3C//DTD SVG 1.1//EN" "http://www.w3.org/Graphics/SVG/1.1/DTD/svg11.dtd">
<svg version="1.1" id="Layer_1" xmlns="http://www.w3.org/2000/svg" xmlns:xlink="http://www.w3.org/1999/xlink" x="0px" y="0px"
	 width="1140.996px" height="392.35px" viewBox="-155.664 51.17 1140.996 392.35"
	 enable-background="new -155.664 51.17 1140.996 392.35" xml:space="preserve">
<g id="Layer_2">
	<g>
		<path fill="#6C82B7" stroke="#000000" stroke-width="8" stroke-miterlimit="10" d="M23,370h249c0,0-15.99-200.137-32.375-216.522
			c0,0-86.839-221.193-165.485,0C74.14,153.478,53.783,170.351,23,370z"/>
		<path fill="#FAFBFC" stroke="#000000" stroke-width="8" stroke-miterlimit="10" d="M71.608,157.126l9.167,55.459l24.548-49.766
			l21.346,41.626l20.83-39.491l28.267,47.631l18.145-42.294l37.356,56.568l12.759-64.769c0,0-20.915-56.812-44.772-78.258
			c0,0-46.807-64.045-91.182,0C108.073,83.832,69.873,146.632,71.608,157.126z"/>
	</g>
	<g>
		<path fill="#6C82B7" stroke="#000000" stroke-width="8" stroke-miterlimit="10" d="M197,370h249c0,0-15.99-200.137-32.375-216.522
			c0,0-86.839-221.193-165.485,0C248.14,153.478,227.783,170.351,197,370z"/>
		<path fill="#FAFBFC" stroke="#000000" stroke-width="8" stroke-miterlimit="10" d="M245.608,157.126l9.167,55.459l24.548-49.766
			l21.346,41.626l20.83-39.491l28.267,47.631l18.145-42.294l37.356,56.568l12.759-64.769c0,0-20.915-56.812-44.772-78.258
			c0,0-46.807-64.045-91.182,0C282.073,83.832,243.873,146.632,245.608,157.126z"/>
	</g>
	<g>
		<path fill="#6C82B7" stroke="#000000" stroke-width="8" stroke-miterlimit="10" d="M374,370h249c0,0-15.99-200.137-32.375-216.522
			c0,0-86.839-221.193-165.485,0C425.14,153.478,404.783,170.351,374,370z"/>
		<path fill="#FAFBFC" stroke="#000000" stroke-width="8" stroke-miterlimit="10" d="M422.608,157.126l9.167,55.459l24.548-49.766
			l21.346,41.626l20.83-39.491l28.267,47.631l18.145-42.294l37.356,56.568l12.759-64.769c0,0-20.915-56.812-44.773-78.258
			c0,0-46.807-64.045-91.182,0C459.073,83.832,420.873,146.632,422.608,157.126z"/>
	</g>
	<g>
		<path fill="#6C82B7" stroke="#000000" stroke-width="8" stroke-miterlimit="10" d="M554,370h249c0,0-15.99-200.137-32.375-216.522
			c0,0-86.839-221.193-165.485,0C605.14,153.478,584.783,170.351,554,370z"/>
		<path fill="#FAFBFC" stroke="#000000" stroke-width="8" stroke-miterlimit="10" d="M602.608,157.126l9.167,55.459l24.549-49.766
			l21.346,41.626l20.83-39.491l28.267,47.631l18.145-42.294l37.356,56.568l12.759-64.769c0,0-20.915-56.812-44.773-78.258
			c0,0-46.807-64.045-91.182,0C639.073,83.832,600.873,146.632,602.608,157.126z"/>
	</g>
	<g>
		<path fill="#6C82B7" stroke="#000000" stroke-width="8" stroke-miterlimit="10" d="M-151,370H98c0,0-15.99-200.137-32.375-216.522
			c0,0-86.839-221.193-165.485,0C-99.86,153.478-120.217,170.351-151,370z"/>
		<path fill="#FAFBFC" stroke="#000000" stroke-width="8" stroke-miterlimit="10" d="M-102.392,157.126l9.167,55.459l24.548-49.766
			l21.346,41.626l20.83-39.491l28.267,47.631l18.145-42.294l37.356,56.568l12.759-64.769c0,0-20.915-56.812-44.772-78.258
			c0,0-46.807-64.045-91.182,0C-65.927,83.832-104.127,146.632-102.392,157.126z"/>
	</g>
	<g>
		<path fill="#6C82B7" stroke="#000000" stroke-width="8" stroke-miterlimit="10" d="M732,370h249c0,0-15.99-200.137-32.375-216.522
			c0,0-86.839-221.193-165.485,0C783.14,153.478,762.783,170.351,732,370z"/>
		<path fill="#FAFBFC" stroke="#000000" stroke-width="8" stroke-miterlimit="10" d="M780.608,157.126l9.167,55.459l24.549-49.766
			l21.346,41.626l20.83-39.491l28.267,47.631l18.145-42.294l37.356,56.568l12.759-64.769c0,0-20.915-56.812-44.773-78.258
			c0,0-46.807-64.045-91.182,0C817.073,83.832,778.873,146.632,780.608,157.126z"/>
	</g>
</g>
<g id="Layer_1_1_">
	<g>
		<path fill="#FFFBCE" stroke="#000000" stroke-width="8" stroke-miterlimit="10" d="M631.183,267.054
			c0,0-38.626-67.595-90.316-2.84C540.868,264.214,568.701,285.799,631.183,267.054z"/>
		<path fill="#FFFBCE" stroke="#000000" stroke-width="8" stroke-miterlimit="10" d="M540.868,264.214
			c0,0-28.969-1.136-27.265,30.105c0,0,69.688,38.626,144.846,3.408c0,0,8.52-23.289-27.265-30.673
			C631.183,267.054,591.99,287.503,540.868,264.214z"/>
		<path fill="#FFFBCE" stroke="#000000" stroke-width="8" stroke-miterlimit="10" d="M513.603,294.319
			c0,0-24.993,16.473-19.313,47.146c0,0,89.18,34.649,182.903-3.408c0,0,2.272-41.466-18.745-40.33
			C658.448,297.727,591.422,335.216,513.603,294.319z"/>
		<path fill="#FFFBCE" stroke="#000000" stroke-width="8" stroke-miterlimit="10" d="M494.29,341.465c0,0-22.153,11.928-6.248,37.49
			c0,0,76.115,30.105,197.672-2.272c0,0,12.64-31.848-8.449-40.917C677.265,335.765,580.061,369.866,494.29,341.465z"/>
		<path fill="#FFFBCE" stroke="#000000" stroke-width="8" stroke-miterlimit="10" d="M488.042,378.954
			c0,0-13.065,18.177-2.84,35.217c0,0,114.714,45.56,207.771-10.981c0,0,7.275-15.912-7.259-26.509
			C685.714,376.682,595.264,411.848,488.042,378.954z"/>
		<path stroke="#000000" stroke-width="8" stroke-miterlimit="10" d="M550.962,428.771c0,0,1.391-34.768,5.563-38.245
			c0,0,25.729-43.808,45.894,3.477c0,0,5.144,9.04,3.615,34.768C606.034,428.771,609.373,432.943,550.962,428.771z"/>
	</g>
	<g>
		<path fill="#FFFBCE" stroke="#000000" stroke-width="8" stroke-miterlimit="10" d="M266.453,267.682
			c0,0-38.626-67.595-90.316-2.84C176.138,264.842,203.971,286.427,266.453,267.682z"/>
		<path fill="#FFFBCE" stroke="#000000" stroke-width="8" stroke-miterlimit="10" d="M176.138,264.842
			c0,0-28.969-1.136-27.265,30.105c0,0,69.688,38.626,144.846,3.408c0,0,8.52-23.289-27.265-30.673
			C266.453,267.682,227.26,288.131,176.138,264.842z"/>
		<path fill="#FFFBCE" stroke="#000000" stroke-width="8" stroke-miterlimit="10" d="M148.873,294.947
			c0,0-24.993,16.473-19.313,47.146c0,0,89.18,34.649,182.903-3.408c0,0,2.272-41.466-18.745-40.33
			C293.719,298.355,226.692,335.845,148.873,294.947z"/>
		<path fill="#FFFBCE" stroke="#000000" stroke-width="8" stroke-miterlimit="10" d="M129.56,342.093c0,0-22.153,11.928-6.248,37.49
			c0,0,76.115,30.105,197.672-2.272c0,0,12.64-31.848-8.449-40.917C312.535,336.394,215.331,370.494,129.56,342.093z"/>
		<path fill="#FFFBCE" stroke="#000000" stroke-width="8" stroke-miterlimit="10" d="M123.312,379.583
			c0,0-13.065,18.177-2.84,35.217c0,0,114.714,45.56,207.771-10.981c0,0,7.275-15.912-7.259-26.509
			C320.984,377.311,230.534,412.476,123.312,379.583z"/>
		<path stroke="#000000" stroke-width="8" stroke-miterlimit="10" d="M186.232,429.4c0,0,1.391-34.768,5.563-38.245
			c0,0,25.729-43.808,45.894,3.477c0,0,5.144,9.04,3.615,34.768C241.304,429.4,244.643,433.572,186.232,429.4z"/>
	</g>
	<g>
		<path fill="#FFFBCE" stroke="#000000" stroke-width="8" stroke-miterlimit="10" d="M447.141,273.125
			c0,0-38.626-67.595-90.316-2.84C356.825,270.285,384.658,291.87,447.141,273.125z"/>
		<path fill="#FFFBCE" stroke="#000000" stroke-width="8" stroke-miterlimit="10" d="M356.825,270.285
			c0,0-28.969-1.136-27.265,30.105c0,0,69.688,38.626,144.846,3.408c0,0,8.52-23.289-27.265-30.673
			C447.141,273.125,407.947,293.574,356.825,270.285z"/>
		<path fill="#FFFBCE" stroke="#000000" stroke-width="8" stroke-miterlimit="10" d="M329.56,300.39
			c0,0-24.993,16.473-19.313,47.146c0,0,89.18,34.649,182.903-3.408c0,0,2.272-41.466-18.745-40.33
			C474.406,303.798,407.379,341.288,329.56,300.39z"/>
		<path fill="#FFFBCE" stroke="#000000" stroke-width="8" stroke-miterlimit="10" d="M310.247,347.536
			c0,0-22.153,11.928-6.248,37.49c0,0,76.115,30.105,197.672-2.272c0,0,12.64-31.848-8.449-40.917
			C493.222,341.837,396.019,375.937,310.247,347.536z"/>
		<path fill="#FFFBCE" stroke="#000000" stroke-width="8" stroke-miterlimit="10" d="M303.999,385.026
			c0,0-13.065,18.177-2.84,35.217c0,0,114.714,45.56,207.771-10.981c0,0,7.275-15.912-7.259-26.509
			C501.671,382.753,411.221,417.919,303.999,385.026z"/>
		<path stroke="#000000" stroke-width="8" stroke-miterlimit="10" d="M366.919,434.842c0,0,1.391-34.768,5.563-38.245
			c0,0,25.729-43.808,45.894,3.477c0,0,5.144,9.04,3.615,34.768C421.991,434.842,425.33,439.014,366.919,434.842z"/>
	</g>
	<g>
		<path fill="#FFFBCE" stroke="#000000" stroke-width="8" stroke-miterlimit="10" d="M91.959,275.054c0,0-38.626-67.595-90.316-2.84
			C1.643,272.214,29.476,293.799,91.959,275.054z"/>
		<path fill="#FFFBCE" stroke="#000000" stroke-width="8" stroke-miterlimit="10" d="M1.643,272.214c0,0-28.969-1.136-27.265,30.105
			c0,0,69.688,38.626,144.846,3.408c0,0,8.52-23.289-27.265-30.673C91.959,275.054,52.765,295.503,1.643,272.214z"/>
		<path fill="#FFFBCE" stroke="#000000" stroke-width="8" stroke-miterlimit="10" d="M-25.622,302.319
			c0,0-24.993,16.473-19.313,47.146c0,0,89.18,34.649,182.903-3.408c0,0,2.272-41.466-18.745-40.33
			C119.224,305.727,52.197,343.216-25.622,302.319z"/>
		<path fill="#FFFBCE" stroke="#000000" stroke-width="8" stroke-miterlimit="10" d="M-44.935,349.465
			c0,0-22.153,11.928-6.248,37.49c0,0,76.115,30.105,197.672-2.272c0,0,12.64-31.848-8.449-40.917
			C138.04,343.765,40.837,377.866-44.935,349.465z"/>
		<path fill="#FFFBCE" stroke="#000000" stroke-width="8" stroke-miterlimit="10" d="M-51.183,386.954
			c0,0-13.065,18.177-2.84,35.217c0,0,114.714,45.56,207.771-10.981c0,0,7.275-15.912-7.259-26.509
			C146.489,384.682,56.039,419.848-51.183,386.954z"/>
		<path stroke="#000000" stroke-width="8" stroke-miterlimit="10" d="M11.737,436.771c0,0,1.391-34.768,5.563-38.245
			c0,0,25.729-43.808,45.894,3.477c0,0,5.144,9.04,3.615,34.768C66.809,436.771,70.148,440.943,11.737,436.771z"/>
	</g>
	<g>
		<path fill="#FFFBCE" stroke="#000000" stroke-width="8" stroke-miterlimit="10" d="M816.634,266.328
			c0,0-38.626-67.595-90.316-2.84C726.318,263.488,754.151,285.073,816.634,266.328z"/>
		<path fill="#FFFBCE" stroke="#000000" stroke-width="8" stroke-miterlimit="10" d="M726.318,263.488
			c0,0-28.969-1.136-27.265,30.105c0,0,69.688,38.626,144.846,3.408c0,0,8.52-23.289-27.265-30.673
			C816.634,266.328,777.44,286.777,726.318,263.488z"/>
		<path fill="#FFFBCE" stroke="#000000" stroke-width="8" stroke-miterlimit="10" d="M699.053,293.593
			c0,0-24.993,16.473-19.313,47.146c0,0,89.18,34.649,182.903-3.408c0,0,2.272-41.466-18.745-40.33
			C843.899,297.001,776.872,334.491,699.053,293.593z"/>
		<path fill="#FFFBCE" stroke="#000000" stroke-width="8" stroke-miterlimit="10" d="M679.74,340.739c0,0-22.153,11.928-6.248,37.49
			c0,0,76.115,30.105,197.672-2.272c0,0,12.64-31.848-8.449-40.917C862.715,335.039,765.511,369.14,679.74,340.739z"/>
		<path fill="#FFFBCE" stroke="#000000" stroke-width="8" stroke-miterlimit="10" d="M673.492,378.228
			c0,0-13.065,18.177-2.84,35.217c0,0,114.714,45.56,207.771-10.981c0,0,7.275-15.912-7.259-26.509
			C871.164,375.956,780.714,411.122,673.492,378.228z"/>
		<path stroke="#000000" stroke-width="8" stroke-miterlimit="10" d="M736.412,428.045c0,0,1.391-34.768,5.563-38.245
			c0,0,25.729-43.808,45.894,3.477c0,0,5.144,9.04,3.615,34.768C791.484,428.045,794.823,432.217,736.412,428.045z"/>
	</g>
</g>
</svg>
